# xmcd
#
# Track frame offsets:
#	150
#	15287
#	27990
#	40392
#	50400
#	59605
#	77321
#	89636
#	106953
#	122683
#	139849
#	156000
#	171127
#	184362
#	199201
#	215343
#	227898
#	241712
#	263494
#	280144
#
# Disc length: 3942 seconds
#
# Revision: 1
# Processed by: cddbd v1.5.2PL0 Copyright (c) Steve Scherf et al.
# Submitted via: audiograbber 1.83.01
#
DISCID=0f0f6414
DTITLE=Philomena Begley - The Way Old Friends Do [CD1)
DYEAR=1900
DGENRE=
TTITLE0=Sentimental Old You
TTITLE1=Have I Told You Lately That I Love You
TTITLE2=Too Young
TTITLE3=Heartaches
TTITLE4=It Must Be You
TTITLE5=Breath In My Body
TTITLE6=The Way Old Friends Do
TTITLE7=Look At Us
TTITLE8=Rose Of My Heart
TTITLE9=Gold And Silver Days
TTITLE10=Old Flames
TTITLE11=Last Rose Of Summer
TTITLE12=I'm So Afraid Of Losing You Again
TTITLE13=One Of These Days
TTITLE14=That's More About Love Than I Wanted To Know
TTITLE15=Real Men Don't Eat Quiche
TTITLE16=Sailor
TTITLE17=Deportees
TTITLE18=Only Yesterday
TTITLE19=Behind The Footlights
EXTD=
EXTT0=
EXTT1=
EXTT2=
EXTT3=
EXTT4=
EXTT5=
EXTT6=
EXTT7=
EXTT8=
EXTT9=
EXTT10=
EXTT11=
EXTT12=
EXTT13=
EXTT14=
EXTT15=
EXTT16=
EXTT17=
EXTT18=
EXTT19=
PLAYORDER=
